<svg xmlns="http://www.w3.org/2000/svg" version="1.0" width="200pt" height="200pt" viewBox="0 0 2000.000000 2000.000000" preserveAspectRatio="xMidYMid meet">

<g transform="translate(0.000000,2000.000000) scale(0.100000,-0.100000)" fill="#000000" stroke="none">
<path d="M9466 16711 c-16 -18 -47 -118 -61 -196 -6 -40 -63 -250 -115 -425 -15 -52 -105 -304 -200 -560 -268 -725 -285 -781 -334 -1090 -45 -283 -50 -353 -51 -685 0 -254 4 -347 18 -450 27 -190 54 -319 87 -403 l28 -74 -31 -10 c-52 -17 -469 -233 -568 -293 -51 -31 -117 -76 -148 -100 -93 -71 -265 -258 -377 -409 -57 -78 -142 -188 -188 -246 -45 -58 -130 -170 -187 -249 -196 -270 -400 -509 -573 -669 -268 -249 -358 -422 -373 -719 -6 -113 -8 -123 -27 -129 -118 -37 -322 -153 -455 -260 -89 -72 -241 -219 -267 -259 -34 -52 0 -44 64 16 138 127 311 241 517 340 182 88 167 91 188 -42 10 -61 32 -155 50 -208 l32 -96 -145 -145 c-80 -80 -175 -185 -212 -235 -71 -94 -128 -192 -128 -219 0 -26 24 -18 44 15 33 55 161 202 247 283 87 82 225 196 237 196 4 0 18 -24 32 -53 45 -93 143 -229 467 -644 377 -483 433 -550 671 -794 l181 -186 -5 -59 c-13 -154 -22 -186 -77 -259 -90 -120 -242 -269 -496 -485 -248 -210 -303 -267 -354 -363 -53 -101 -62 -148 -62 -327 l0 -165 34 -63 c40 -73 92 -121 171 -159 76 -36 195 -39 257 -6 54 29 109 87 125 129 7 19 18 34 25 34 7 0 13 -1 13 -3 0 -2 -7 -50 -15 -106 -9 -57 -18 -160 -20 -229 -4 -123 15 -388 30 -412 16 -27 40 -4 51 50 10 48 12 51 13 20 11 -285 135 -600 369 -933 30 -43 53 -80 51 -81 -15 -14 -299 -149 -359 -171 -72 -27 -85 -28 -330 -35 -232 -7 -262 -10 -332 -33 -97 -31 -153 -64 -204 -119 -140 -152 -126 -355 36 -518 76 -77 166 -127 294 -164 140 -41 217 -36 391 27 153 56 247 72 403 68 42 -1 52 -4 52 -18 0 -35 56 -128 115 -188 76 -79 163 -135 256 -166 65 -21 92 -24 224 -24 223 1 404 45 656 160 299 137 469 165 1008 165 402 0 606 27 831 110 128 47 196 87 279 166 42 39 92 79 111 89 19 9 91 59 160 110 69 50 159 117 201 148 180 131 456 429 533 576 98 188 164 406 173 579 l6 112 28 0 c66 0 237 41 306 74 182 87 296 201 378 380 60 129 96 316 61 316 -8 0 -27 -10 -43 -23 -42 -35 -103 -70 -103 -60 0 5 7 32 15 59 44 149 63 456 36 594 -17 89 -86 262 -124 312 -35 45 -90 78 -146 87 -35 6 -35 7 -38 61 -8 143 -56 237 -192 370 -174 171 -367 268 -434 217 -9 -6 -23 -43 -32 -82 -27 -118 -92 -249 -211 -425 -134 -199 -188 -296 -208 -374 -9 -32 -17 -61 -19 -62 -2 -2 -44 56 -95 130 -158 231 -252 451 -277 646 l-7 56 74 23 c251 81 504 222 698 389 241 208 447 448 548 640 28 53 52 91 52 83 0 -19 50 -130 73 -164 11 -16 23 -25 28 -20 4 4 13 49 19 99 5 50 16 127 24 170 20 107 27 167 28 247 2 64 9 80 24 56 10 -17 86 -49 117 -49 16 0 30 7 34 16 3 9 -6 67 -20 128 -15 61 -43 181 -63 266 -53 230 -92 343 -239 685 -221 518 -285 687 -379 1019 -50 172 -52 186 -34 186 19 0 276 119 383 178 118 65 270 164 473 309 236 169 353 269 474 406 37 42 71 77 75 77 4 0 8 -19 10 -42 4 -60 12 -90 30 -110 27 -30 51 -21 86 28 102 147 228 313 433 569 31 39 98 133 150 211 269 404 417 788 454 1179 14 143 55 393 80 481 18 66 47 132 111 254 73 141 8 230 -223 304 -223 71 -438 96 -718 85 -358 -15 -662 -91 -975 -244 -584 -286 -1068 -797 -1572 -1660 -156 -267 -216 -364 -310 -507 l-63 -96 -78 32 c-115 49 -509 174 -692 221 -72 18 -85 24 -82 41 1 10 30 127 63 259 34 132 72 285 85 340 31 132 57 362 51 453 -5 70 -4 72 13 57 25 -23 62 -15 77 15 35 74 42 403 13 594 -97 627 -284 1087 -610 1496 -85 107 -472 499 -543 551 -46 33 -87 37 -111 10z m152 -269 c55 -85 135 -186 318 -403 151 -179 236 -305 323 -480 148 -297 246 -621 316 -1039 14 -85 31 -183 39 -218 12 -58 11 -61 -4 -47 -20 18 -44 19 -57 3 -6 -7 -13 -74 -16 -148 -10 -237 -49 -418 -162 -755 -29 -88 -66 -215 -81 -283 l-29 -124 -30 7 c-221 46 -551 64 -733 39 -127 -17 -285 -52 -456 -100 -101 -29 -130 -34 -136 -24 -10 16 -28 135 -45 300 -17 160 -12 605 9 790 57 507 127 773 391 1480 206 552 268 761 287 958 7 67 13 122 14 122 1 0 24 -35 52 -78z m5017 -1536 c50 -9 122 -26 160 -38 l70 -22 -75 -8 c-41 -4 -120 -12 -175 -18 -251 -26 -668 -147 -1005 -292 -374 -160 -683 -383 -918 -662 -155 -184 -421 -556 -652 -911 -161 -249 -521 -777 -679 -995 -99 -137 -120 -178 -96 -187 16 -5 200 157 284 250 151 169 329 430 600 879 331 551 486 763 743 1014 151 149 234 219 352 296 167 110 509 268 686 317 131 36 346 60 668 77 172 9 316 13 319 10 3 -3 -11 -61 -32 -128 -21 -68 -68 -242 -105 -388 -38 -146 -85 -317 -105 -380 -102 -315 -229 -563 -444 -865 -138 -193 -276 -396 -284 -417 -9 -26 -22 -22 -25 8 -3 35 -19 54 -47 54 -16 0 -42 -21 -82 -64 -167 -183 -841 -682 -1140 -844 -51 -28 -152 -78 -223 -111 -227 -105 -364 -218 -483 -396 -47 -69 -30 -87 32 -33 38 34 195 111 249 123 30 6 32 5 32 -22 0 -49 39 -253 66 -343 65 -217 173 -503 269 -710 151 -326 323 -773 359 -932 6 -25 4 -26 -21 -19 -16 4 -35 6 -43 3 -36 -11 -39 -30 -33 -196 3 -89 3 -178 -1 -199 -7 -36 -7 -36 -26 -17 -20 20 -54 25 -84 14 -9 -3 -60 -70 -113 -148 -155 -228 -225 -314 -340 -427 -149 -146 -249 -217 -443 -313 -181 -89 -321 -147 -505 -208 -168 -55 -216 -65 -420 -83 -196 -18 -380 -46 -465 -71 -113 -34 -317 -156 -334 -201 -15 -38 14 -35 91 10 157 92 237 111 448 106 83 -2 234 -3 336 -4 l186 0 6 -75 c6 -93 58 -254 117 -366 100 -187 223 -334 406 -486 204 -169 352 -354 466 -583 108 -217 168 -511 155 -759 -7 -124 -71 -388 -120 -491 -107 -224 -242 -382 -413 -485 -270 -161 -433 -298 -485 -407 -22 -47 -43 -73 -77 -98 -122 -89 -314 -166 -507 -203 -118 -24 -183 -29 -615 -52 -391 -21 -603 -51 -780 -111 -50 -16 -185 -70 -300 -119 -245 -104 -384 -150 -455 -150 -64 0 -203 34 -275 68 -78 37 -147 111 -199 214 -41 80 -44 91 -38 143 7 66 34 126 83 183 75 89 175 126 409 152 214 24 318 51 518 133 l158 64 58 -23 c122 -50 270 -67 568 -68 199 -1 275 2 284 11 17 17 -9 21 -181 27 -271 10 -456 49 -630 133 -156 76 -271 208 -349 403 -50 127 -65 223 -58 390 9 230 63 396 190 586 76 114 210 263 286 317 31 22 80 43 151 62 190 52 368 127 547 230 l63 36 -6 -43 c-7 -50 11 -74 45 -63 23 7 152 130 203 194 31 39 43 45 99 58 140 30 516 24 773 -13 39 -6 48 -4 44 7 -12 38 -299 128 -479 151 -95 11 -251 3 -302 -18 -17 -6 -16 -1 6 42 90 178 143 480 116 653 -9 57 -36 109 -49 95 -5 -5 -11 -52 -15 -104 -18 -272 -75 -435 -279 -795 -51 -89 -98 -158 -67 -98 18 36 13 62 -15 75 -36 16 -85 2 -251 -76 -309 -143 -499 -207 -747 -251 -116 -20 -294 -30 -378 -21 l-66 7 -7 42 c-9 54 -31 97 -50 97 -14 0 -18 -14 -30 -111 -13 -104 -107 -205 -238 -255 -60 -23 -72 -25 -98 -14 -36 15 -66 53 -107 135 -43 87 -55 153 -50 259 9 170 52 231 313 441 343 277 474 440 529 661 37 148 13 192 -34 63 -47 -129 -98 -216 -179 -302 -91 -96 -243 -220 -343 -278 -200 -116 -244 -146 -293 -194 -134 -134 -178 -352 -114 -560 39 -129 96 -234 163 -300 70 -70 121 -90 209 -83 98 8 247 120 296 223 13 28 25 51 26 53 1 1 44 -5 96 -14 67 -11 126 -15 203 -11 l109 6 -71 -65 c-287 -261 -431 -621 -393 -975 24 -223 104 -410 235 -547 41 -44 134 -112 170 -126 10 -3 17 -8 15 -10 -10 -9 -351 -75 -419 -81 -41 -3 -89 -8 -107 -11 -64 -8 -243 136 -356 286 -40 52 -116 149 -170 215 -153 185 -211 276 -271 424 -33 82 -131 395 -166 534 -29 115 -51 151 -87 144 -20 -4 -22 -1 -17 37 18 158 75 402 164 703 66 224 187 701 219 863 27 139 40 275 36 383 -1 48 1 87 6 85 4 -2 29 -30 55 -63 64 -83 148 -260 180 -382 15 -57 31 -103 37 -103 14 0 2 128 -22 238 -30 137 -66 236 -137 378 -72 143 -132 225 -400 542 -134 158 -387 474 -717 896 -59 76 -130 170 -156 210 -48 71 -111 178 -111 188 0 20 384 223 555 293 98 40 118 52 109 66 -29 47 -497 -121 -690 -248 -21 -13 -23 -12 -52 70 -39 109 -71 215 -74 251 -4 35 -5 35 212 73 144 26 175 28 423 27 243 0 267 2 267 17 0 57 -361 96 -615 65 -71 -8 -166 -25 -209 -36 -44 -11 -84 -20 -89 -20 -16 0 0 145 27 253 46 180 96 240 383 463 179 140 240 201 360 362 63 85 275 435 333 551 176 352 604 748 947 877 83 31 378 113 536 148 262 59 624 81 923 56 161 -13 163 -13 424 -61 263 -49 261 -49 494 -115 103 -30 194 -54 202 -54 8 0 14 -5 14 -12 0 -16 -95 -140 -179 -232 -39 -43 -71 -82 -71 -86 0 -15 20 -22 44 -16 32 8 180 144 278 256 166 189 484 606 733 960 439 625 679 881 1065 1140 309 206 616 314 1030 364 85 10 448 -2 535 -18z m-2252 -7493 c162 -128 280 -260 317 -354 30 -74 48 -178 51 -279 1 -46 4 -92 7 -102 9 -35 51 -21 112 38 l59 56 30 -21 c66 -47 98 -179 107 -436 8 -212 -8 -323 -62 -430 -22 -42 -54 -94 -71 -115 -18 -21 -33 -45 -33 -54 0 -38 90 -47 178 -17 28 10 52 14 52 9 0 -45 -118 -176 -242 -271 -103 -78 -263 -138 -345 -129 l-42 4 -11 57 c-18 92 -89 296 -152 441 -93 213 -137 282 -332 508 l-88 104 7 56 c17 136 84 289 188 431 61 83 153 271 171 350 9 38 16 102 16 140 0 39 2 71 6 71 3 0 37 -26 77 -57z m-4588 -270 c-15 -65 -60 -248 -100 -408 -41 -159 -83 -332 -95 -384 -11 -51 -32 -113 -46 -137 -14 -24 -27 -44 -28 -44 -1 0 -2 12 -2 28 -1 82 -5 103 -19 109 -23 8 -27 0 -32 -69 -17 -234 -90 -348 -226 -351 -100 -2 -160 61 -193 203 -15 65 -16 88 -6 171 26 217 82 305 347 543 128 115 278 275 361 385 32 43 61 77 63 75 2 -1 -9 -56 -24 -121z m598 -3178 c32 -17 57 -33 57 -36 0 -3 -22 -6 -50 -8 -117 -5 -259 -63 -328 -134 -38 -40 -112 -170 -112 -199 0 -28 -19 -38 -100 -53 -93 -17 -240 -63 -420 -131 -130 -49 -192 -55 -295 -29 -78 21 -120 47 -195 119 -79 77 -100 118 -100 197 0 81 29 132 110 192 110 83 143 91 395 94 282 4 428 29 735 125 l75 24 86 -66 c47 -36 111 -79 142 -95z"/>
<path d="M7050 10689 c-80 -17 -103 -99 -51 -180 69 -109 172 -170 251 -149 66 18 94 75 78 156 -21 102 -171 196 -278 173z"/>
<path d="M7604 10366 c-40 -40 -46 -92 -14 -143 14 -24 84 -81 106 -88 1 0 -4 -29 -12 -65 -19 -91 -18 -194 1 -210 24 -20 33 -4 66 123 l31 116 67 -6 c82 -7 132 12 156 57 40 78 -13 140 -179 209 -129 53 -174 55 -222 7z"/>
<path d="M9044 9959 c-58 -13 -119 -68 -132 -119 -18 -73 6 -125 82 -175 131 -87 298 -120 384 -76 24 12 49 35 58 54 21 39 21 104 1 144 -35 68 -144 139 -254 168 -63 17 -79 17 -139 4z"/>
<path d="M8080 9738 c1 -7 44 -44 97 -83 234 -171 495 -420 635 -606 290 -386 450 -723 561 -1178 7 -30 18 -56 25 -59 16 -5 15 11 -9 146 -76 436 -256 837 -530 1182 -170 214 -472 465 -698 580 -64 33 -81 36 -81 18z"/>
<path d="M8000 9605 c0 -2 14 -35 31 -72 126 -273 206 -560 256 -914 18 -133 25 -611 11 -737 -7 -57 -6 -63 9 -60 20 4 46 102 63 248 17 136 14 470 -5 615 -32 245 -114 504 -234 742 -52 104 -105 183 -121 183 -6 0 -10 -2 -10 -5z"/>
</g>
</svg>